<svg width="18" height="19" viewBox="0 0 18 19" fill="none" xmlns="http://www.w3.org/2000/svg">
<path fill-rule="evenodd" clip-rule="evenodd" d="M12.6531 15.205C11.5192 15.8213 10.2197 16.1714 8.83838 16.1714C4.4201 16.1714 0.838379 12.5897 0.838379 8.17139C0.838379 3.75311 4.4201 0.171387 8.83838 0.171387C13.2567 0.171387 16.8384 3.75311 16.8384 8.17139C16.8384 10.24 16.0532 12.1253 14.7647 13.5454L17.3907 16.1714L15.505 18.057L12.6531 15.205ZM14.1717 8.17139C14.1717 11.1169 11.7839 13.5047 8.83838 13.5047C5.89286 13.5047 3.50505 11.1169 3.50505 8.17139C3.50505 5.22587 5.89286 2.83805 8.83838 2.83805C11.7839 2.83805 14.1717 5.22587 14.1717 8.17139Z" fill="#CBCECF"/>
</svg>
